<!-- <?xml version="1.0" encoding="UTF-8" standalone="no"?>
<svg
   width="308.7612359841165"
   height="304.915625"
   viewBox="0 0 106.00782394174519 104.68749999999999"
   class="css-1j8o68f"
   version="1.1"
   id="svg23"
   sodipodi:docname="logo.svg"
   xmlns:inkscape="http://www.inkscape.org/namespaces/inkscape"
   xmlns:sodipodi="http://sodipodi.sourceforge.net/DTD/sodipodi-0.dtd"
   xmlns="http://www.w3.org/2000/svg"
   xmlns:svg="http://www.w3.org/2000/svg">
  <sodipodi:namedview
     id="namedview25"
     pagecolor="#ffffff"
     bordercolor="#000000"
     borderopacity="0.25"
     inkscape:showpageshadow="2"
     inkscape:pageopacity="0.0"
     inkscape:pagecheckerboard="0"
     inkscape:deskcolor="#d1d1d1" />
  <defs
     id="SvgjsDefs2684" />
  <g
     id="SvgjsG2685"
     featurekey="rootContainer"
     transform="matrix(0.9820592540669653,0,0,0.9820592540669653,-0.054560523427421584,0)"
     fill="#ff4a3f">
    <g
       id="g17">
      <path
         d="M19.8 15.3h.5l-.4-.2zm.5.1zm.8-.7c0 .1 0 .1.1.1l.4-.3c-.2-.1-.3-.1-.5.2zm.4-.2zm-4.1 2.3zm-.2.6l.3-.2c.1-.1.1-.2.1-.2h-.2l-.2.4c-.1-.1-.1 0 0 0zm2.2-2.9h-.1l-.2.2h.3zm-2.1 2.4l.6-.5c.1-.1.1-.2.1-.3h-.3l-1.2 1.1-.2.4.7-.6zm-1.1.8z"
         id="path3" />
      <path
         d="M9.7 25v-.2a1.7 1.7 0 0 1 .7-1.1l.9-.6.5-.6.7-.7.4-.4.4-.3a1.9 1.9 0 0 0 .8-.9l.4-.5a5.9 5.9 0 0 0 1-1.3l.2-.3.3-.2-.2-.3.4-.5c.8-.6 1.4-1.4 2.2-2l.3-.3a1.4 1.4 0 0 1 .5-.6l.8-.4h.4a1.4 1.4 0 0 0 .7-.6V13a3.5 3.5 0 0 1 1.3-1.4l.8-.5.2-.2.4-.4 1-.5h.2l-1.1.4-1.4 1c-.6.5-1.4.6-1.8 1.4h.3c-.7.2-1.4.5-1.7 1.2s-.8.6-1.2.9a.4.4 0 0 0-.3.4c-.8-.1-1.1.5-1.5.9v.8a3.9 3.9 0 0 0-1.6 1.4c-1.6.1-1.6 2.1-3 2.5h-.1a.2.2 0 0 0 0 .2c-.3 0-.5.2-.4.5l-.2.5c-.7.4-.6 1.1-1 1.7-.8.5-1.1 1.5-1.7 2.2l.3.5.2-.2a11.6 11.6 0 0 1 .9-1.3zM53.9 3.3l.6.2h.2a2.2 2.2 0 0 0 1.4.2 4.1 4.1 0 0 1 1.9.1h1.2a1.4 1.4 0 0 1 1.2.3.1.1 0 0 1 0 .1H60a.1.1 0 0 0 0 .1h.7a1.8 1.8 0 0 1 1.3 0c.2 0 .1.1.2.2l.5.2h-.2c-.2-.4-.5-.4-.8-.4a9.7 9.7 0 0 0-4.3-.9h-.8A9.8 9.8 0 0 0 53 3h.2zm7.3 3.1zM50.3 4.7zm10.9 1.7h.2-.2zM19 14.7zm32.1-10zm17.6 2.2a.9.9 0 0 0 1 .2h.6a3.1 3.1 0 0 0-1.8-.7l-.7-.2.5.3zm-3.4-1.3c0 .1.1.2.2.3h.2l.5-.3a4.2 4.2 0 0 0-1.7-.6l.7.4zm7.4 2.7l.8.5c-.2-.3-.4-.5-.8-.5z"
         id="path5" />
      <path
         d="M99 76.1l.6-1.6.6-1.5c.2-.5.6-1.8.8-2.6a1.7 1.7 0 0 1 .3-.7h.1v-1.1c.5-.1.4-.6.5-.9l.8-4.7a12.7 12.7 0 0 0 0-6.2 1.9 1.9 0 0 0-.5-1.6v-4.3c-.3-.9.3-1.9-.4-2.7L101 45a.4.4 0 0 0 0-.2l-.2-.6a.5.5 0 0 1 0-.4h.1c.3 0 .3-.5.3-.9a3 3 0 0 0-.4-1.1l-.3-.4a1.1 1.1 0 0 1-.2-.7 6.7 6.7 0 0 0-.2-2v-.6c-.2-.7-.4-1.5-.6-2.2l-.2-.5a2.5 2.5 0 0 1-.4-1.1 2.5 2.5 0 0 0-.3-.8l-.6-1a.8.8 0 0 0-.6-.2h-.1V32h-.2v-.8H97V31a.4.4 0 0 0 0-.1v-.2c.1-.2.1-.3-.1-.5a1.8 1.8 0 0 1-.4-.6l-.2-.6a2.9 2.9 0 0 0-.7-1.2 2.2 2.2 0 0 1-.5-.7l-.7-1.6a4.3 4.3 0 0 0-.6-1l-.6-.8a2.4 2.4 0 0 1-.4-.8l-.2-.3a.6.6 0 0 1-.1-.5.5.5 0 0 0-.2-.4l-.4-.3v.2c.1.2 0 .3-.1.3h-.2l.3 1 .3.5.7.9h-.1l-.2-.2-.2-.2a1.3 1.3 0 0 0-1.2-1.1v-.7c-.3-1.2-1.6-1.3-2.2-2.1a1.5 1.5 0 0 0-1.1-.9l-.8-.9a11.3 11.3 0 0 0-3.1-3l-.8-.6-.4-.3c-.7-.7-1-1.8-2.2-1.8l-.8-.5-.9-.7a2.2 2.2 0 0 0-1.8-1.3 5.1 5.1 0 0 0-2.3-1.2l.2.2.5.4 1.3.7a8.5 8.5 0 0 1 2.1 1.6 6.8 6.8 0 0 0 1.5 1.1l.6.5c.1.1.2.2.1.3H81l-.9-.3a5.6 5.6 0 0 1-2-.8l-1.2-.6-1.3-.7h-.2c-.3-.1-.4-.4-.8-.5l-.8-.2-2.5-.5a2.6 2.6 0 0 1-.9-.7 1.7 1.7 0 0 1-.9-.3l-1-.4a18.1 18.1 0 0 1-2.8-.8l-.6-.2-1-.3h-.5l-.2-.3v-.1h-1.6l-.6-.5-.4.2-.4.2h-.2l-.9-.5c-.6.6-1.1-.2-1.6-.1l-1-.3a1.2 1.2 0 0 1-1.2 0h-1.2a.6.6 0 0 1-.5-.6l.3-.2h.6a.7.7 0 0 1 .1.3c0 .2.2.2.5.2h.2l-.4-.6a1.1 1.1 0 0 0-1-.2l-1 .3H53c.3.2.2.3.2.5h-1.6l-.4-.2-.8-.4h-.1l-.7-.2h-2.3l.4-.2.8-.2h.3l1.7-.3 1.1-.2.6-.2h-1.1a8.4 8.4 0 0 0-3.4 0h-1.3L43 3.6c-1.4.1-2.8 0-3.9 1.2-2.5-.4-4.7.7-6.9 1.8l-2.2.9a6.7 6.7 0 0 0-3.7 1.8h.3l.5-.3.8-.5 1.3-.6 1-.2a6 6 0 0 1 2-.9l.9-.3h.2c.1.2.5 0 .7 0h.2c.1 0 .1.1 0 .1l-.6.4 1-.3.8-.2-1.3.7-1.3.4a1 1 0 0 0-.6.5l-.3.5h.3l.4-.2a1.4 1.4 0 0 1 .9-.6l1.5-.5h.5a.1.1 0 0 1 .1.2c-.2.2-.6.3-.8.5h.2l-3.2.9-3.8 1.6a5.2 5.2 0 0 1-2.3 1.2 6.6 6.6 0 0 1-1.7 1.1l-.8.2a1.5 1.5 0 0 1-1.3.9l-.3.5a3.7 3.7 0 0 1-1.2 1.1h-.1v-.1l-.2.2-.2.2-1 .2h-.5l-.4.5c-.1.1-.1.2 0 .2h.1c-.6.6-1 1.4-1.8 1.7L15 19.9c-.6 1.2-1.8 1.6-2.6 2.6s-1.4 3.9-3.9 4.3l-.2-.3-.2.5a2.7 2.7 0 0 1-.4.8 16.9 16.9 0 0 0-1.2 2.1.8.8 0 0 0-.1.5 1.4 1.4 0 0 1-.2.8l-.5 1.1h.2c.3 0 .3.3.4.6l.8-1.1a2.2 2.2 0 0 1 .6-.7 2 2 0 0 0 .9-.9l.3-.3.4-.4.6-1.1h.2c.1.1.1.1.2 0l.2-.4h.5v.8l.5-.5a.5.5 0 0 0 0-.5.4.4 0 0 1 .1-.3 1.5 1.5 0 0 0 .3-.5 1.3 1.3 0 0 1 .8-.9l.3-.2.3-.3a2.4 2.4 0 0 0 .8-1l-.2-.3c0-.1.1-.3.2-.4h.5l.6-.8.6-.3h.2a48.8 48.8 0 0 0-5.5 7.2h-.1.1a48.4 48.4 0 0 0-5.3 11.2h-.5l-.5-.4c-.2-.2-.1-.7-.4-.9h.1c.3-.5-.1-1.2.3-1.7s.1-1.4-.9-1.2-1.5.5-1.3 1.5-1 1.8-1.1 2.9-.5.5-.3.9v3.9c.1.8-.5 1.8.8 2.1l1.3.9c.1.5-.5 1.6.9 1.3a49.2 49.2 0 0 0-.3 5c0 1.1.1 2.2.1 3.3v-.4c-.1-.4-.1-.8-.2-1.3l-.3.3v-.2h-.5c0 .5-.1.8-.4.9a.9.9 0 0 0-.1.5c0 .1.1.3.2.2s.4.2.7.4-.2.3-.4.2-.2.1-.2.3v.3l.5 1.5c0 .3-.1.6-.1.9a1.7 1.7 0 0 0 .2.8h-.3v-.3l-.7-.2v-.6a1.5 1.5 0 0 0 0-.5 14.6 14.6 0 0 1-.3-1.8 16.6 16.6 0 0 1-.2-3.5.9.9 0 0 1 .1-.5v.2a2.9 2.9 0 0 1 .1.5.8.8 0 0 0 .1.4c.1.2.2.4.4.4s.1-.1.1-.2a2.1 2.1 0 0 0-.1-.5 4.2 4.2 0 0 1-.3-1.3 1.5 1.5 0 0 0-.3-.7 1.6 1.6 0 0 1-.2-.9v-.8c0-.3.1-.6.1-.9a.5.5 0 0 0-.1-.4h-.1c-.8.4-.7.2-1 1.6V55c0 .7-.1 1.4 0 2.1a10.8 10.8 0 0 0 .2 2.3 1.8 1.8 0 0 1 0 .5 3.1 3.1 0 0 0 .1.9 5.9 5.9 0 0 1 .1 1.3 3.9 3.9 0 0 0 .2 1.7 1.2 1.2 0 0 1 0 .4 2.1 2.1 0 0 0 .1.8 4.9 4.9 0 0 1 .2.9 14 14 0 0 0 .5 2.2 5 5 0 0 1 .2 1 1.7 1.7 0 0 0 .3.7 2.9 2.9 0 0 1 .5 1.2 8.5 8.5 0 0 0 .3 1l.4 1.4a5.4 5.4 0 0 0 .6 1.5 8.5 8.5 0 0 1 .8 2.1l.2.5a2.1 2.1 0 0 1 .5 1 2.1 2.1 0 0 0 .4.8 1 1 0 0 1 .2.5c.1.3.2.4.4.3h.1v.9l.5 1 .5 1 1.1 1.2.4.4c.3.3.7.5.9 1l.4.3a.7.7 0 0 1 .3.5l.2.7a3.3 3.3 0 0 0 .6.9l.4.2h.3a.2.2 0 0 1 .1.3 2.5 2.5 0 0 0 0 .5.9.9 0 0 0 .4.5h.2c.4-.1.8.2 1.2.7h.1c0-.1.1-.1 0-.2v-.2c0-.1.1-.2.2-.1a.7.7 0 0 1 .3.6v.2a4.3 4.3 0 0 0 .4 1.2c.5.3.5.3.5.1s0-.2.2-.2h.4l.2.3.8.5c.7.8 1.8.7 2.6 1.2l1.7 1.7h.2a2.9 2.9 0 0 0 1.6 1.6 1.3 1.3 0 0 0 1 .6c0 .5.6.6 1.1.7a1.2 1.2 0 0 0 .8.4h.2a1.7 1.7 0 0 0 1.5.5l.9.8 2.4.9v.2c.5 1.1 1.7.7 2.5 1l1.1.4h.4c1.2.3 2.4.9 3.7.5a.7.7 0 0 0 0 .4c1.1.7 2.4 0 3.6.4a2.9 2.9 0 0 0 1.7.1h.1l.8.2h.3l.9.2h.3a.5.5 0 0 1 .5 0 7.9 7.9 0 0 0 1.5.4h.6a.7.7 0 0 1 .7 0h3.9a5 5 0 0 0 1.6-.1h1l.5-.2H60l.6-.2.5-.3h2.2v.6H62l-1.2.2c-.4.1-.7 0-1 .1a2.4 2.4 0 0 1-1 .2l-1.3.3h-.4a3.1 3.1 0 0 0-1.5.1h-1.8a1.1 1.1 0 0 1-.9 0h-4.5a1.3 1.3 0 0 0-1.1.3H47l-.3-.2v-.3h-1.2a4.1 4.1 0 0 0-1.3-.3h-2.5l-.7-.2-.5-.2-2.1-.4h-.5l-.5-.2-2.1-.7-1.4-.4h-2.2c-.1 0-.1.1-.1.2h.2c1.3.5 2.6.9 3.9 1.5h.3l.9.2 1.4.4h1.3l.6.2.7.3 1.7.3 1.1.2 1.1.2h.8l.8.2h3.1l1 .2h2.3l1-.2H56c.4 0 .6-.1.7-.3h1a1 1 0 0 0 .8-.3c-.1.1 0 .1.1.2h.4v-.2c0-.1 0-.1.2-.2s.6-.1.7.1h.4l.3-.2c.2 0 .2 0 .2.1h.7l.5-.2.8-.4c.1.3.4.4 1.3.2l1.3-.4h1.2c.9-.1 2 0 2.7-.7h.2l.4-.3 1.1-.3a6.1 6.1 0 0 0 2-.8l.4-.2h.1l.9-.6.4-.2.5-.2h.4c.4-.1.4-.1.5-.4s0-.1-.2-.1h-.1l.4-.5h.2c.3-.1.5-.2.7-.1h.2a1.3 1.3 0 0 0 .9-.9c.3-.4 1.1-.2 1.3-.8l4.3-3.1c1.1-.1 1.4-1.1 2.2-1.7s2.3-1.1 3-2.2l.9-.4h.1a1 1 0 0 0 1.2-.7v.4c.8-.4 1.8.3 2.6-.5s0-2.7 1-3.8l.7-.5a12.1 12.1 0 0 0 1.5-4.2l.2-.2c0-.3 0-.7.4-.9a.9.9 0 0 0 .2-1.2h-.2a.3.3 0 0 0 0-.3c.7 0 .8-.7 1.2-1V77a.5.5 0 0 1 0-.2 3.8 3.8 0 0 0 .1-.7zM5.9 32.2z"
         id="path7" />
      <path
         d="M26.4 9.3l-.3.2-.4.3.5-.2zm6.1-2h.1l.3-.2h-.4zm-2.6 1l-.1.1h.1v-.1zm-1.5 1.4zm1.3-.2zm-6.3 3.1zM9.2 26.2l-.4.4H9a.4.4 0 0 0 .2-.4zm3-3.5a2.1 2.1 0 0 0 .3-.6 1.5 1.5 0 0 0-.5.5c-.1.1-.1.2 0 .2zM11 24.2V24c-.2 0-.5.3-.8.3v.2c.3.3.4.2.8-.3zm3 66.2zM73.9 9.2h.1l-.5-.3zm-2.5-1.4c.5-.1.8.4 1.2.5h.1l-.3-.2-1-.5-1.1-.5.3.2zM52.8 3.1zm11.7 2h-.1l-1.2-.2h.5zm2 .7l1.3.4a3.3 3.3 0 0 0-1.3-.4zm-9 0a1 1 0 0 0 .2-.5h-.5l-.3.3.4.3zm9 1.6zM49.9 4.2zm2.9.7zM48.5 4zm13.8 2.1a.5.5 0 0 0 0 .1zm44.8 52.3h-.3V58h.3c.1 0 .2-.3.1-.4s-.1-.7-.3-.8a.3.3 0 0 1-.2-.3l.2-.4a.4.4 0 0 0 0-.2h-.2l-.2-.3c-.1.3-.2.6-.4.7a.5.5 0 0 0 0 .2c0 .1 0 .2-.1.2h-.1a1.1 1.1 0 0 1-.1.3 2.3 2.3 0 0 0-.4.9.4.4 0 0 0 .1.4h.1a1.7 1.7 0 0 0-.1.8v.4a1.8 1.8 0 0 1-.1.5h-.1l-.4.7v.6a1.5 1.5 0 0 1-.3 1.1h-.2l-.2-.2a.9.9 0 0 1-.1-.8 6.5 6.5 0 0 0 .1-1.7c0-.1-.1-.2-.1-.2a.5.5 0 0 0-.1.3v.6c0 .2-.1.6-.3.7s-.1.2-.1.3l-.2.6.3.5c-.2.2-.4.1-.5-.1v1h.3v.4a4.2 4.2 0 0 0-.3 1.4 3.3 3.3 0 0 0 0 .4 4 4 0 0 1-.2 1.3 2 2 0 0 0 0 .6l-.3.7a3.2 3.2 0 0 1-.3.7l-.3.6-.9 2.7c.3.9-.4 1.5-.8 2.1a2.7 2.7 0 0 1-.8 2.3v.4c0 .1.1.2.3.1l.4-.3.2-.4h.2c.1.1.2.1.4-.1h.2a.5.5 0 0 1 .1.6 2.9 2.9 0 0 0-.1.8c0 .1 0 .2.1.2h.2c.1.1.2 0 .3-.3l.2-.5h.3c.4-.1.4-.1.6-.6l.5-.9.3-.6.4-1a1.6 1.6 0 0 1 .3-1 .6.6 0 0 0 .1-.6c0-.2 0-.3.2-.6l.3-.4.5-1a4.7 4.7 0 0 1 .2-.9 3 3 0 0 0 .3-1.3 3.8 3.8 0 0 1 .3-.9v-.5c-.1-.2-.1-.2 0-.6s.1-.2.2-.2a.4.4 0 0 1 .1.3l.2-.5a2.3 2.3 0 0 0 .2-.9v-.3c0-.1 0-.3-.1-.3v.4c-.2 0-.3.2-.5.3a6.4 6.4 0 0 0 .1-.8l.4-.2a.7.7 0 0 0 .2-.6 1.4 1.4 0 0 1 0-.3 4.8 4.8 0 0 0 .2-1.4v-.2l.3-1h.1a.3.3 0 0 0 .1-.3h-.1a.9.9 0 0 1 .2-.8 1.5 1.5 0 0 0-.9-1zm-1.2 7.8zm-.2-9.9zm0 0zM9.1 30.8a.3.3 0 0 0 0-.2l-.2-.2-.2.2-.3.6c0 .3-.3.6-.3.9v.2h.1zm96.3 24.8h.1a1.7 1.7 0 0 0 .2-1.2.5.5 0 0 1 .2-.5h.1v-.2l-.2-.2h-.1c-.1.1-.2.3-.3.3s-.1.1-.1.3v.3a2.2 2.2 0 0 0 .1 1.2zM13.2 90.1c-.1 0 0 .2 0 .3l.8.8h.1c-.2-.3-.3-.6-.2-.7a.9.9 0 0 1-.5-.2zm.8.3zm92.3-35.7h.1a2 2 0 0 0 0-.6c-.3.1-.3.1-.3.6s.1.1.2 0z"
         id="path9" />
      <path
         d="M106.7 62a.6.6 0 0 0 .1-.5c0-.1-.1-.2-.1-.1h-.2v.2c0 .4.1.5.2.4zm.1-8.2h-.1v.6a1 1 0 0 0 .1-.6zM17.1 92.6h-.2v.2l.2.2h.2v-.2zm86.6-33.3c0-.1 0-.1-.1-.1zM9.9 86.5l.5.5-.4-.6z"
         id="path11" />
      <circle
         cx="10.5"
         cy="87.1"
         transform="rotate(-24.8 10.4 87.159)"
         id="circle13" />
      <path
         d="M9.7 30.1h-.1v.2-.2h.1zm83.2-6.6l-.2-.3h-.1zm-14.7 77.1zM5.9 32.2zm-.1.2a.3.3 0 0 0 .1-.2v.2zm1.9-4.9zM61.5 2.4zm42.8 58.2v.1-.1zM16.4 92.5h-.1c.1.1.2 0 .1-.1zm.2.7h.1l-.1-.1v.1zm73.9-71.3zm15.2 34.4zM14.6 91.7zm92.1-37zm-.8 11.4zM34.6 0z"
         id="path15" />
    </g>
  </g>
  <g
     id="SvgjsG2686"
     featurekey="nameFeature-0"
     transform="matrix(2.284354285447385,0,0,2.284354285447385,27.980055421585643,-5.609520280720151)"
     fill="#ffffff">
    <path
       d="M9.6 16.48 l-0.32 4.24 c-0.08 1.8 2.6 1.96 2.72 0.2 l0.24 -4.28 c0.12 -1.76 -2.56 -1.96 -2.64 -0.16 z M0.48 11 l0 0 c0.04 0 20.48 -0.32 20.56 -0.2 c1.28 1.12 0.96 27.8 0.12 28.56 c-0.4 0.32 -4.64 0.56 -9.2 0.6 c-0.84 -3.84 -0.2 -8.32 -0.2 -8.32 c0.24 -1.8 -2.44 -2.12 -2.64 -0.4 c0 0.04 -0.64 4.52 0.16 8.76 c-4.56 -0.04 -8.68 -0.24 -8.92 -0.64 c-0.8 -1.44 0 -28.28 0.12 -28.36 z"
       id="path20" />
  </g>
</svg> -->
<svg version="1.1" id="Layer_1" xmlns="http://www.w3.org/2000/svg" xmlns:xlink="http://www.w3.org/1999/xlink" x="0px" y="0px"
	 width="100%" viewBox="0 0 356 305" enable-background="new 0 0 356 305" xml:space="preserve">
<path fill="#000000" opacity="1.000000" stroke="none" 
	d="
M357.000000,208.000000 
	C357.000000,240.655594 357.000000,273.311188 357.000000,305.983398 
	C238.384628,305.983398 119.769241,305.983398 1.076933,305.983398 
	C1.076933,204.419128 1.076933,102.838181 1.076933,1.128617 
	C119.666588,1.128617 238.333267,1.128617 356.999969,1.125280 
	C357.000000,59.102192 357.000000,117.082436 356.686798,175.681335 
	C355.922363,176.376495 355.471161,176.453003 354.780884,176.288559 
	C354.167572,175.536072 353.793304,175.024567 354.233215,175.625763 
	C350.544617,189.494461 346.655518,204.116928 342.780334,218.687241 
	C343.048889,218.555862 343.615570,218.278656 344.502411,218.001724 
	C345.463287,218.002228 346.103973,218.002457 346.844910,218.259338 
	C346.945129,219.311325 346.945129,220.106628 346.945129,220.901947 
	C347.403107,221.143768 347.861053,221.385590 348.319031,221.627396 
	C350.529602,217.712006 352.700897,213.773468 354.984283,209.900986 
	C355.434875,209.136826 356.316925,208.627075 357.000000,208.000000 
M85.667976,65.392746 
	C86.027374,65.911522 86.386772,66.430290 86.884689,67.609634 
	C85.913658,68.382202 84.942627,69.154770 83.666809,69.695877 
	C83.484444,70.212410 83.302071,70.728935 83.222473,71.906334 
	C82.464615,72.930603 81.706757,73.954880 80.331955,75.279076 
	C77.517822,80.345222 73.724190,85.082024 75.254868,91.815086 
	C79.254410,87.467415 83.253952,83.119743 87.253494,78.772072 
	C88.135025,80.371254 88.340065,81.422119 87.967781,82.194832 
	C82.737335,93.051277 77.453239,103.882454 72.022850,114.639343 
	C71.852196,114.977364 69.974991,114.453865 68.938484,113.366943 
	C68.928749,111.744186 68.919014,110.121422 68.900734,107.754044 
	C68.198540,106.573906 67.496346,105.393776 66.794144,104.213638 
	C65.362572,105.133102 62.955147,105.810730 62.657639,107.011230 
	C60.712845,114.858894 56.901726,122.341141 58.243858,130.901947 
	C58.676533,133.661743 59.158737,135.415009 61.474182,137.397934 
	C63.899422,139.474899 64.984123,143.117203 66.378479,146.702087 
	C66.281914,147.622421 66.185349,148.542770 66.291077,150.312469 
	C66.250824,153.431152 66.355873,156.563034 66.074600,159.659821 
	C65.998245,160.500443 64.755508,161.235092 63.596058,161.991867 
	C63.596058,161.991867 63.144623,162.027283 62.886875,161.447662 
	C62.574356,161.270782 62.261837,161.093887 61.923103,160.980072 
	C61.923103,160.980072 61.975899,160.944382 62.343674,160.218536 
	C61.890053,158.156921 61.436428,156.095291 60.992142,153.120773 
	C60.963097,151.581894 60.934052,150.043030 60.663948,147.926620 
	C60.177986,147.424911 59.692024,146.923187 59.206059,146.421478 
	C58.504272,147.834808 57.258823,149.224747 57.196808,150.665619 
	C56.955616,156.269440 57.090111,161.889404 57.062378,168.326477 
	C57.294312,169.867050 57.526249,171.407623 58.027527,173.815079 
	C58.225445,176.129303 58.049782,178.551575 58.682770,180.739944 
	C62.395805,193.576797 65.584648,206.634094 70.380180,219.065430 
	C73.719627,227.722198 76.253578,237.433182 85.262825,243.653214 
	C85.957832,244.900040 86.454926,246.324310 87.384384,247.360901 
	C90.349861,250.668198 91.419762,256.601471 97.995628,255.984787 
	C98.438454,262.258179 104.537079,261.482422 108.413651,264.568451 
	C111.271919,266.380737 114.130188,268.193024 117.261696,270.618439 
	C122.504997,274.088043 127.748306,277.557617 133.405914,281.605530 
	C140.587341,284.826538 147.768768,288.047516 154.924683,291.671234 
	C154.924683,291.671234 154.967667,292.072418 154.185272,292.188690 
	C153.133865,292.233276 152.082474,292.277863 150.475128,292.146362 
	C149.762375,292.146362 149.049637,292.146362 148.336884,292.146362 
	C148.295700,292.349152 148.254532,292.551971 148.213348,292.754761 
	C149.158493,293.132233 150.103638,293.509674 151.108597,293.989685 
	C151.108597,293.989685 151.210678,293.929108 151.311340,294.137848 
	C151.311340,294.137848 151.723877,294.086700 152.374680,294.593445 
	C154.962448,295.382202 157.550232,296.170959 160.274414,297.175995 
	C160.274414,297.175995 160.517349,297.252228 160.517349,297.252228 
	C160.517349,297.252228 160.724503,297.104309 161.496216,297.533722 
	C162.362686,297.679718 163.229141,297.825714 164.261551,298.218475 
	C164.261551,298.218475 164.534119,298.334137 164.534119,298.334137 
	C164.534119,298.334137 164.806412,298.217987 165.602997,298.672333 
	C166.819016,298.807800 168.035049,298.943268 169.657684,299.154694 
	C169.937775,299.178925 170.209091,299.140808 171.182404,299.235931 
	C171.881027,299.460510 172.579651,299.685089 173.729553,300.251343 
	C174.458176,300.363281 175.186813,300.475250 176.661224,300.839081 
	C177.183792,300.866058 177.706360,300.893066 178.708176,301.171387 
	C179.413574,301.249481 180.118958,301.327545 181.610352,301.749512 
	C182.179245,301.799103 182.748138,301.848724 183.893921,302.155060 
	C185.147400,302.166473 186.400879,302.177917 188.403290,302.650940 
	C188.961121,302.831329 189.518951,303.011688 190.804489,303.549438 
	C194.042496,303.593872 197.280502,303.638306 201.302185,303.576874 
	C203.673828,303.667694 206.045486,303.758514 209.371460,303.906403 
	C212.234085,303.643250 215.096725,303.380096 218.503616,302.635132 
	C219.670837,302.372742 220.838074,302.110352 222.773544,301.931030 
	C224.472351,301.456757 226.171143,300.982483 228.599197,300.795349 
	C229.096069,300.673492 229.592941,300.551666 230.479599,300.458893 
	C230.479599,300.458893 230.838516,300.304169 231.624817,300.628265 
	C232.152344,300.475464 232.679871,300.322632 233.435257,300.287445 
	C233.636307,300.262115 233.748734,300.148743 234.473770,299.825348 
	C237.319122,299.550629 240.164459,299.275940 243.734131,299.002686 
	C245.127136,298.783569 246.520142,298.564423 248.680984,298.059418 
	C249.671417,297.977173 250.749344,298.121765 251.639114,297.778564 
	C264.285126,292.900787 276.692505,287.559937 287.861908,278.381195 
	C292.006256,275.519348 296.150604,272.657501 300.818359,269.425110 
	C300.894897,269.225525 300.971436,269.025940 301.439514,268.687347 
	C301.686707,268.515259 301.814728,268.278656 302.450195,267.669800 
	C305.308807,265.475006 308.167389,263.280182 311.788483,260.873199 
	C312.871429,260.516663 313.943420,260.121460 315.039398,259.810760 
	C318.376617,258.864655 321.723083,257.951172 325.724426,256.649658 
	C326.453278,250.757248 329.030945,245.814163 332.155518,240.719940 
	C335.655029,235.014450 337.566223,228.273804 339.746307,221.840500 
	C341.318604,217.200958 341.506958,212.012466 343.506256,207.611038 
	C353.795013,184.960632 350.674591,161.404922 348.834473,137.900879 
	C348.809570,137.582855 348.579590,137.286041 348.514038,136.965286 
	C346.961243,129.367035 345.450165,121.760094 343.861572,114.169380 
	C342.780609,109.004234 341.963013,103.740593 340.332214,98.748154 
	C339.114166,95.019196 336.784973,91.653206 334.955658,87.515732 
	C334.792542,86.737053 334.629456,85.958374 333.896027,84.667336 
	C329.450226,76.601456 325.004425,68.535568 320.424042,60.225544 
	C319.618988,61.278404 318.971588,62.125099 318.364777,62.918697 
	C317.611542,61.652130 317.082977,60.145878 316.059143,59.147415 
	C311.342255,54.547302 307.008972,49.261539 301.536346,45.810043 
	C295.965820,42.296795 293.339325,33.137218 284.180847,35.970821 
	C283.922729,36.050686 283.551758,35.796940 283.242462,35.675636 
	C275.552826,32.659801 267.931610,29.452955 260.157867,26.672518 
	C251.469803,23.565058 242.690857,20.686625 233.855408,18.027773 
	C230.027756,16.875914 225.959610,16.523268 221.945877,15.234646 
	C220.971725,15.130221 219.997559,15.025797 218.826828,15.210050 
	C218.826828,15.210050 218.489746,15.118683 217.621216,15.074577 
	C216.755066,15.048527 215.888901,15.022476 214.387192,14.987160 
	C213.942520,14.659432 213.497849,14.331704 213.559967,13.794193 
	C213.530518,13.053681 213.501068,12.313169 213.471603,11.572656 
	C212.640518,12.054458 211.809418,12.536261 210.150970,12.996146 
	C205.736923,15.920582 202.075302,13.433312 197.363022,11.212307 
	C199.828384,10.664423 201.383621,10.318802 203.497437,9.940690 
	C203.431549,9.341098 203.349106,8.215647 203.302155,8.217125 
	C200.559189,8.303497 197.819168,8.483083 194.173676,8.952588 
	C178.973785,7.958858 164.464127,10.908586 150.386902,16.262064 
	C151.710846,17.722168 152.842743,18.970472 153.974640,20.218777 
	C152.971329,20.450153 151.968033,20.681530 150.604568,20.648668 
	C150.041275,21.086657 149.477982,21.524645 148.783188,22.660072 
	C147.079422,23.640150 145.399704,24.665089 143.667816,25.592632 
	C135.675140,29.873251 127.477028,33.814281 119.753540,38.533302 
	C116.338943,40.619598 114.104492,44.678928 108.548538,44.047848 
	C108.062180,44.035595 107.575821,44.023342 106.816612,43.371410 
	C106.001007,43.519978 105.185402,43.668541 104.369804,43.817108 
	C104.577843,44.548203 104.785889,45.279301 105.030090,46.742542 
	C103.701599,47.557503 102.373100,48.372463 100.541901,49.128338 
	C100.250313,49.508266 99.958717,49.888199 99.046730,50.684937 
	C98.005417,51.340683 96.964104,51.996429 95.742218,52.591660 
	C95.742218,52.591660 95.712036,52.900757 95.116013,53.278221 
	C94.190216,54.602524 93.264427,55.926830 91.735512,57.528591 
	C90.836716,58.399719 89.937920,59.270851 88.805946,60.284523 
	C88.668091,60.457809 88.676613,60.623516 88.364662,61.339821 
	C88.276047,61.565609 88.187424,61.791393 87.609276,62.226822 
	C87.365524,62.680855 87.121773,63.134892 86.376106,63.922043 
	C86.219475,64.285957 86.062843,64.649879 85.667976,65.392746 
M134.612839,23.945854 
	C133.631088,23.945854 132.649353,23.945854 131.667603,23.945854 
	C131.810852,24.514256 131.954102,25.082659 132.097351,25.651060 
	C132.888123,25.253647 133.678909,24.856232 134.612839,23.945854 
M125.265991,29.431210 
	C124.543266,29.257559 123.820549,29.083908 123.097824,28.910257 
	C123.045868,29.349638 122.993912,29.789019 122.941956,30.228399 
	C123.649185,30.127851 124.356407,30.027304 125.265991,29.431210 
M116.089226,35.587528 
	C116.113876,35.748066 116.107307,35.922859 116.172226,36.065010 
	C116.233521,36.199223 116.369995,36.299110 116.473396,36.414093 
	C117.078949,35.591068 117.684502,34.768047 118.290054,33.945023 
	C117.958977,33.731899 117.627907,33.518776 117.296829,33.305653 
	C116.903107,33.900845 116.509377,34.496037 116.089226,35.587528 
M254.081131,17.200121 
	C253.641663,16.882725 253.213715,16.544830 252.744186,16.280947 
	C252.699280,16.255699 252.394989,16.691977 252.211105,16.913994 
	C252.736374,17.118982 253.261627,17.323971 254.081131,17.200121 
M215.866348,8.794452 
	C216.119843,9.050008 216.373352,9.305563 216.626846,9.561117 
	C216.798416,9.364676 216.969971,9.168236 217.141541,8.971797 
	C216.806305,8.816530 216.471054,8.661263 215.866348,8.794452 
M261.034729,19.659245 
	C260.714996,19.859726 260.395233,20.060207 260.075500,20.260695 
	C260.164856,20.373791 260.321350,20.592407 260.333710,20.584551 
	C260.649567,20.383482 260.950378,20.158743 261.034729,19.659245 
M212.054901,7.492523 
	C211.811020,7.466439 211.567123,7.440355 211.323242,7.414271 
	C211.410538,7.688674 211.497818,7.963077 211.585114,8.237488 
	C211.775803,8.087044 211.966492,7.936600 212.054901,7.492523 
M273.264740,25.146170 
	C273.413635,25.336536 273.562531,25.526905 273.711395,25.717285 
	C273.906494,25.517204 274.101593,25.317123 274.296661,25.117033 
	C274.031555,25.057724 273.766449,24.998413 273.264740,25.146170 
M140.730316,20.895864 
	C140.767120,21.074778 140.803925,21.253691 140.840759,21.432604 
	C140.876740,21.262430 140.912735,21.092258 140.730316,20.895864 
M245.088898,15.313453 
	C244.935974,15.195284 244.783066,15.077115 244.630142,14.958942 
	C244.725708,15.124878 244.821274,15.290813 245.088898,15.313453 
M144.334915,19.282118 
	C144.414673,19.453999 144.494446,19.625879 144.574203,19.797762 
	C144.561890,19.597008 144.549576,19.396254 144.334915,19.282118 
M138.478058,21.811096 
	C138.524307,21.615215 138.570557,21.419334 138.616806,21.223457 
	C138.511444,21.375196 138.406082,21.526937 138.478058,21.811096 
M113.033447,38.425758 
	C113.148926,38.275539 113.264404,38.125317 113.379883,37.975101 
	C113.217194,38.069695 113.054497,38.164288 113.033447,38.425758 
M136.334518,22.281662 
	C136.414459,22.453892 136.494415,22.626123 136.574371,22.798351 
	C136.562027,22.597170 136.549667,22.395988 136.334518,22.281662 
z"/>
<path fill="#F7483E" opacity="1.000000" stroke="none" 
	d="
M357.000000,207.625000 
	C356.316925,208.627075 355.434875,209.136826 354.984283,209.900986 
	C352.700897,213.773468 350.529602,217.712006 348.319031,221.627396 
	C347.861053,221.385590 347.403107,221.143768 346.945129,220.901947 
	C346.945129,220.106628 346.945129,219.311325 346.793671,217.970490 
	C345.822235,217.617126 345.002228,217.809280 344.182251,218.001434 
	C343.615570,218.278656 343.048889,218.555862 342.780334,218.687241 
	C346.655518,204.116928 350.544617,189.494461 354.233215,175.625763 
	C353.793304,175.024567 354.167572,175.536072 354.974884,176.479492 
	C355.938629,176.940933 356.469299,176.970474 357.000000,177.000000 
	C357.000000,185.687561 357.000000,194.375137 356.767273,203.617920 
	C356.463104,204.323288 356.304810,204.582428 356.334320,204.605942 
	C356.534027,204.765121 356.773438,204.874512 357.000000,205.000000 
	C357.000000,205.750000 357.000000,206.500000 357.000000,207.625000 
z"/>
<path fill="#C33E37" opacity="1.000000" stroke="none" 
	d="
M357.000000,176.750000 
	C356.469299,176.970474 355.938629,176.940933 355.213928,176.720459 
	C355.471161,176.453003 355.922363,176.376495 356.686798,176.149994 
	C357.000000,176.000000 357.000000,176.500000 357.000000,176.750000 
z"/>
<path fill="#C33E37" opacity="1.000000" stroke="none" 
	d="
M357.000000,204.750000 
	C356.773438,204.874512 356.534027,204.765121 356.334320,204.605942 
	C356.304810,204.582428 356.463104,204.323288 356.767273,204.086578 
	C357.000000,204.000000 357.000000,204.500000 357.000000,204.750000 
z"/>
<path fill="#FD4A3F" opacity="1.000000" stroke="none" 
	d="
M57.084816,167.503372 
	C57.090111,161.889404 56.955616,156.269440 57.196808,150.665619 
	C57.258823,149.224747 58.504272,147.834808 59.206062,146.421478 
	C59.692024,146.923187 60.177986,147.424911 60.576233,148.529846 
	C60.653286,150.766602 60.818047,152.400131 60.982807,154.033676 
	C61.436428,156.095291 61.890053,158.156921 62.086048,160.783569 
	C58.808189,167.162216 62.458008,172.452332 63.064777,178.030609 
	C63.861774,176.057556 63.913185,174.096130 63.850353,172.138367 
	C63.741932,168.759933 61.766769,165.350723 64.048103,162.018387 
	C64.755508,161.235092 65.998245,160.500443 66.074600,159.659821 
	C66.355873,156.563034 66.250824,153.431152 66.355141,149.570770 
	C66.497719,147.911148 66.576225,146.993240 66.654739,146.075333 
	C64.984123,143.117203 63.899422,139.474899 61.474182,137.397934 
	C59.158737,135.415009 58.676533,133.661743 58.243858,130.901947 
	C56.901726,122.341141 60.712845,114.858894 62.657639,107.011230 
	C62.955147,105.810730 65.362572,105.133102 66.794144,104.213638 
	C67.496346,105.393776 68.198540,106.573906 68.698288,108.459648 
	C68.628349,110.887505 68.760857,112.609749 68.893372,114.332001 
	C69.974991,114.453865 71.852196,114.977364 72.022850,114.639343 
	C77.453239,103.882454 82.737335,93.051277 87.967781,82.194832 
	C88.340065,81.422119 88.135025,80.371254 87.253494,78.772072 
	C83.253952,83.119743 79.254410,87.467415 75.254868,91.815086 
	C73.724190,85.082024 77.517822,80.345222 81.023422,75.145966 
	C87.163208,74.783569 88.662186,70.335365 90.766861,66.536354 
	C92.436836,63.521988 91.738823,61.899593 88.098801,62.017181 
	C88.187424,61.791393 88.276047,61.565609 88.662613,60.966114 
	C88.960556,60.592407 89.039124,60.141979 89.039124,60.141983 
	C89.937920,59.270851 90.836716,58.399719 92.201736,57.579491 
	C92.779945,57.754856 92.891930,57.879322 93.035156,58.315529 
	C94.954933,62.138325 95.977997,60.129513 96.992050,58.005989 
	C96.999939,57.998970 97.014580,57.983784 97.348846,57.922268 
	C99.163429,56.398518 100.623276,54.914825 102.128891,53.479137 
	C104.329170,51.381073 103.206833,50.162426 101.044609,49.187424 
	C102.373100,48.372463 103.701599,47.557503 105.184067,46.177586 
	C105.606384,45.387768 105.874725,45.162907 106.486137,44.927193 
	C107.645409,44.645432 108.461609,44.374527 109.277809,44.103622 
	C114.104492,44.678928 116.338943,40.619598 119.753540,38.533302 
	C127.477028,33.814281 135.675140,29.873251 143.667816,25.592632 
	C145.399704,24.665089 147.079422,23.640150 149.153961,22.247513 
	C150.004730,21.527605 150.484726,21.220259 150.964722,20.912910 
	C151.968033,20.681530 152.971329,20.450153 153.974640,20.218777 
	C152.842743,18.970472 151.710846,17.722168 150.386902,16.262064 
	C164.464127,10.908586 178.973785,7.958858 195.053711,8.790985 
	C198.268784,9.077315 200.603821,9.525249 202.938843,9.973181 
	C201.383621,10.318802 199.828384,10.664423 197.363022,11.212307 
	C202.075302,13.433312 205.736923,15.920582 210.699310,13.289831 
	C211.849487,13.723668 212.451324,13.863819 213.053177,14.003973 
	C213.497849,14.331704 213.942520,14.659432 214.909576,15.243276 
	C216.451233,15.372489 217.470490,15.245586 218.489746,15.118683 
	C218.489746,15.118683 218.826828,15.210050 219.194382,15.233030 
	C220.374863,15.439876 221.187775,15.623740 222.000702,15.807604 
	C225.959610,16.523268 230.027756,16.875914 233.855408,18.027773 
	C242.690857,20.686625 251.469803,23.565058 260.157867,26.672518 
	C267.931610,29.452955 275.552826,32.659801 283.242462,35.675636 
	C283.551758,35.796940 283.922729,36.050686 284.180847,35.970821 
	C293.339325,33.137218 295.965820,42.296795 301.536346,45.810043 
	C307.008972,49.261539 311.342255,54.547302 316.059143,59.147415 
	C317.082977,60.145878 317.611542,61.652130 318.364777,62.918697 
	C318.971588,62.125099 319.618988,61.278404 320.424042,60.225544 
	C325.004425,68.535568 329.450226,76.601456 334.148376,85.227554 
	C334.584045,86.567047 334.767303,87.346313 334.950562,88.125580 
	C336.784973,91.653206 339.114166,95.019196 340.332214,98.748154 
	C341.963013,103.740593 342.780609,109.004234 343.861572,114.169380 
	C345.450165,121.760094 346.961243,129.367035 348.514038,136.965286 
	C348.579590,137.286041 348.809570,137.582855 348.834473,137.900879 
	C350.674591,161.404922 353.795013,184.960632 343.506256,207.611038 
	C341.506958,212.012466 341.318604,217.200958 339.746307,221.840500 
	C337.566223,228.273804 335.655029,235.014450 332.155518,240.719940 
	C329.030945,245.814163 326.453278,250.757248 325.048889,256.655975 
	C323.915680,254.643463 323.069580,252.626434 323.060211,250.605530 
	C322.962769,229.629517 323.002167,208.652893 322.999329,187.676437 
	C322.996887,169.699142 319.478180,152.451706 312.417511,135.904282 
	C308.716217,127.229874 302.760895,120.287308 295.127319,115.152695 
	C291.905212,112.985405 288.504242,109.141388 283.433929,110.540375 
	C283.346069,98.528061 283.346069,86.977005 283.346069,75.071457 
	C269.411987,75.071457 256.308319,75.208694 243.210999,74.981194 
	C239.648514,74.919304 238.047134,76.068253 236.735092,79.365425 
	C230.919846,93.978912 224.783722,108.464706 218.364349,123.010056 
	C211.588303,123.666000 205.218674,124.697388 198.832413,124.813545 
	C194.621155,124.890144 190.385956,123.649872 186.063156,122.637337 
	C181.159500,110.455833 176.334305,98.644241 171.554413,86.814346 
	C166.812912,75.079460 166.832932,75.071373 154.153305,75.071373 
	C143.551758,75.071373 132.950211,75.071373 121.738319,75.071373 
	C121.738319,88.439560 121.738319,101.221069 121.345917,114.003387 
	C118.936020,114.554993 116.561134,114.601387 114.958153,115.737198 
	C103.252068,124.031593 95.550873,135.700256 91.362068,148.953674 
	C88.117012,159.221069 87.012703,170.327133 86.206131,181.153458 
	C85.522591,190.328171 86.894119,199.636826 86.871605,208.885040 
	C86.846214,219.314377 86.299690,229.743149 85.911728,240.169647 
	C85.876480,241.116928 85.345123,242.045746 85.044151,242.983139 
	C76.253578,237.433182 73.719627,227.722198 70.380180,219.065430 
	C65.584648,206.634094 62.395805,193.576797 58.682770,180.739944 
	C58.049782,178.551575 58.225445,176.129303 57.916191,172.990662 
	C57.564838,170.611938 57.324825,169.057663 57.084816,167.503372 
z"/>
<path fill="#DA4036" opacity="1.000000" stroke="none" 
	d="
M154.950195,291.268494 
	C147.768768,288.047516 140.587341,284.826538 133.173553,280.944092 
	C132.601089,279.183228 132.492035,277.932404 131.885818,277.007416 
	C124.314529,265.454895 122.841156,252.334366 122.437492,239.095947 
	C125.590508,239.228165 128.294571,239.308517 130.999756,239.824692 
	C130.029556,251.789368 133.775223,262.248108 140.403046,271.099457 
	C147.276764,280.279175 157.687469,284.595062 169.131058,284.895538 
	C184.758636,285.305908 200.410736,285.259735 216.041229,284.911835 
	C226.240631,284.684814 236.534958,284.279236 246.574081,282.646149 
	C255.215561,281.240417 261.347809,275.173615 266.647980,268.200867 
	C273.212402,259.564850 273.377808,249.321777 275.439392,239.298859 
	C278.261749,239.183487 280.646942,239.159317 283.107574,239.509933 
	C283.117157,243.656952 283.317383,247.456314 282.935913,251.196350 
	C281.752502,262.798615 278.687775,273.763397 270.148041,282.294495 
	C259.079803,293.351501 244.281113,294.556488 229.526215,296.960266 
	C222.451904,297.220947 215.844833,297.738098 209.234589,297.782654 
	C190.876038,297.906342 172.871140,294.894043 154.950195,291.268494 
z"/>
<path fill="#F9483E" opacity="1.000000" stroke="none" 
	d="
M283.521790,111.001633 
	C288.504242,109.141388 291.905212,112.985405 295.127319,115.152695 
	C302.760895,120.287308 308.716217,127.229874 312.417511,135.904282 
	C319.478180,152.451706 322.996887,169.699142 322.999329,187.676437 
	C323.002167,208.652893 322.962769,229.629517 323.060211,250.605530 
	C323.069580,252.626434 323.915680,254.643463 324.719666,256.843628 
	C321.723083,257.951172 318.376617,258.864655 315.039398,259.810760 
	C313.943420,260.121460 312.871429,260.516663 311.402435,260.505127 
	C310.675964,230.920120 310.785156,201.688309 309.820129,172.491989 
	C309.274323,155.978241 303.854004,140.852921 290.882141,129.536438 
	C288.905396,127.811951 285.998932,127.153221 283.434967,125.542671 
	C283.405579,120.389732 283.463684,115.695679 283.521790,111.001633 
z"/>
<path fill="#F7483D" opacity="1.000000" stroke="none" 
	d="
M85.153488,243.318176 
	C85.345123,242.045746 85.876480,241.116928 85.911728,240.169647 
	C86.299690,229.743149 86.846214,219.314377 86.871605,208.885040 
	C86.894119,199.636826 85.522591,190.328171 86.206131,181.153458 
	C87.012703,170.327133 88.117012,159.221069 91.362068,148.953674 
	C95.550873,135.700256 103.252068,124.031593 114.958153,115.737198 
	C116.561134,114.601387 118.936020,114.554993 121.422592,114.465668 
	C121.840836,120.618591 121.790009,126.310059 121.378281,132.011703 
	C119.662041,132.548294 118.046028,132.765244 116.993805,133.651535 
	C110.339226,139.256683 105.764366,146.393738 103.421326,154.681595 
	C99.526825,168.457336 97.876633,182.570816 97.962524,196.918411 
	C98.078880,216.352631 97.930702,235.788437 97.896004,255.223572 
	C91.419762,256.601471 90.349861,250.668198 87.384384,247.360901 
	C86.454926,246.324310 85.957832,244.900040 85.153488,243.318176 
z"/>
<path fill="#E3463C" opacity="1.000000" stroke="none" 
	d="
M229.992004,297.001038 
	C244.281113,294.556488 259.079803,293.351501 270.148041,282.294495 
	C278.687775,273.763397 281.752502,262.798615 282.935913,251.196350 
	C283.317383,247.456314 283.117157,243.656952 283.205139,239.041199 
	C283.244873,234.710251 283.267090,231.222855 283.279327,227.735428 
	C283.361053,204.490021 283.440643,181.244614 283.844635,158.063507 
	C286.443878,164.019852 290.234680,169.792068 290.711823,175.826309 
	C292.161804,194.164307 292.480255,212.599777 292.946472,231.004715 
	C293.249298,242.961197 292.813782,254.875198 289.253357,266.499939 
	C288.054657,270.413635 287.867950,274.637329 287.218689,278.719330 
	C276.692505,287.559937 264.285126,292.900787 251.639114,297.778564 
	C250.749344,298.121765 249.671417,297.977173 247.929138,298.179016 
	C245.788116,298.532837 244.398972,298.767059 243.009811,299.001221 
	C240.164459,299.275940 237.319122,299.550629 234.019501,299.896057 
	C233.565216,299.966736 233.207397,300.169800 233.207397,300.169800 
	C232.679871,300.322632 232.152344,300.475464 231.137970,300.417145 
	C230.420746,300.170410 230.233643,300.244995 230.089813,300.429810 
	C229.592941,300.551666 229.096069,300.673492 227.957916,300.520569 
	C225.546173,300.779846 223.775742,301.313904 222.005295,301.847931 
	C220.838074,302.110352 219.670837,302.372742 217.787323,302.846558 
	C214.388351,303.048676 211.705658,303.039429 208.572662,302.988190 
	C205.417419,302.969635 202.712479,302.993042 199.536407,303.043823 
	C196.621521,301.983643 192.925720,305.336334 191.860382,300.633118 
	C201.654495,300.163574 211.010056,299.976715 220.709900,299.807434 
	C221.699203,299.621277 222.344223,299.417542 223.371338,299.143738 
	C225.832962,298.382812 227.912476,297.691925 229.992004,297.001038 
z"/>
<path fill="#F3473C" opacity="1.000000" stroke="none" 
	d="
M283.522461,126.001572 
	C285.998932,127.153221 288.905396,127.811951 290.882141,129.536438 
	C303.854004,140.852921 309.274323,155.978241 309.820129,172.491989 
	C310.785156,201.688309 310.675964,230.920120 311.021179,260.611206 
	C308.167389,263.280182 305.308807,265.475006 301.985718,267.944489 
	C301.331177,268.396332 301.173401,268.598724 301.048004,268.826355 
	C300.971436,269.025940 300.894897,269.225525 300.507050,269.129822 
	C300.797150,251.059006 301.436768,233.284622 301.990173,215.507568 
	C302.650543,194.294907 302.121002,173.198181 294.888031,152.886368 
	C292.702576,146.749100 289.185516,141.531693 283.435303,137.548126 
	C283.405975,133.396896 283.464233,129.699234 283.522461,126.001572 
z"/>
<path fill="#EF463B" opacity="1.000000" stroke="none" 
	d="
M97.945816,255.604187 
	C97.930702,235.788437 98.078880,216.352631 97.962524,196.918411 
	C97.876633,182.570816 99.526825,168.457336 103.421326,154.681595 
	C105.764366,146.393738 110.339226,139.256683 116.993805,133.651535 
	C118.046028,132.765244 119.662041,132.548294 121.455269,132.472992 
	C121.843033,137.948883 121.792908,142.973663 121.395424,148.034561 
	C119.924004,148.947739 118.301407,149.591721 117.763306,150.742706 
	C115.586220,155.399460 112.785316,160.053024 111.962852,164.998505 
	C109.817284,177.899902 107.514328,190.933075 107.256958,203.952881 
	C106.886612,222.688141 108.291260,241.457474 108.862091,260.214600 
	C108.900223,261.467682 108.295799,262.740295 107.990234,264.003845 
	C104.537079,261.482422 98.438454,262.258179 97.945816,255.604187 
z"/>
<path fill="#EC453B" opacity="1.000000" stroke="none" 
	d="
M283.522858,138.001709 
	C289.185516,141.531693 292.702576,146.749100 294.888031,152.886368 
	C302.121002,173.198181 302.650543,194.294907 301.990173,215.507568 
	C301.436768,233.284622 300.797150,251.059006 300.245361,269.315125 
	C296.150604,272.657501 292.006256,275.519348 287.540283,278.550262 
	C287.867950,274.637329 288.054657,270.413635 289.253357,266.499939 
	C292.813782,254.875198 293.249298,242.961197 292.946472,231.004715 
	C292.480255,212.599777 292.161804,194.164307 290.711823,175.826309 
	C290.234680,169.792068 286.443878,164.019852 283.755249,157.602814 
	C283.402374,150.719131 283.462616,144.360413 283.522858,138.001709 
z"/>
<path fill="#E9453C" opacity="1.000000" stroke="none" 
	d="
M108.201942,264.286133 
	C108.295799,262.740295 108.900223,261.467682 108.862091,260.214600 
	C108.291260,241.457474 106.886612,222.688141 107.256958,203.952881 
	C107.514328,190.933075 109.817284,177.899902 111.962852,164.998505 
	C112.785316,160.053024 115.586220,155.399460 117.763306,150.742706 
	C118.301407,149.591721 119.924004,148.947739 121.473404,148.496674 
	C121.848061,154.281921 121.797386,159.641190 121.398361,165.058960 
	C120.128593,166.379044 118.602333,167.544937 118.385071,168.917953 
	C117.089203,177.107651 115.457603,185.320892 115.143646,193.572083 
	C114.618706,207.368057 114.798965,221.202591 115.078545,235.012863 
	C115.235939,242.787552 116.258873,250.541641 116.749023,258.313995 
	C116.994133,262.200714 116.918839,266.107574 116.988464,270.005341 
	C114.130188,268.193024 111.271919,266.380737 108.201942,264.286133 
z"/>
<path fill="#E1443B" opacity="1.000000" stroke="none" 
	d="
M117.125076,270.311890 
	C116.918839,266.107574 116.994133,262.200714 116.749023,258.313995 
	C116.258873,250.541641 115.235939,242.787552 115.078545,235.012863 
	C114.798965,221.202591 114.618706,207.368057 115.143646,193.572083 
	C115.457603,185.320892 117.089203,177.107651 118.385071,168.917953 
	C118.602333,167.544937 120.128593,166.379044 121.475372,165.522064 
	C121.929993,190.299149 121.959267,214.671600 121.988533,239.044067 
	C122.841156,252.334366 124.314529,265.454895 131.885818,277.007416 
	C132.492035,277.932404 132.601089,279.183228 132.966400,280.654938 
	C127.748306,277.557617 122.504997,274.088043 117.125076,270.311890 
z"/>
<path fill="#160B0A" opacity="1.000000" stroke="none" 
	d="
M220.365601,299.789917 
	C211.010056,299.976715 201.654495,300.163574 191.901489,300.633362 
	C191.504044,300.916321 191.754822,300.919891 191.432159,300.619629 
	C189.192368,299.834625 187.275223,299.349884 185.177826,298.710724 
	C184.701782,298.401825 184.393845,298.371582 183.631592,298.365051 
	C179.611496,297.917084 176.037872,297.473511 172.451569,297.312195 
	C171.818787,297.283752 171.132980,298.434326 170.471664,299.040405 
	C170.209091,299.140808 169.937775,299.178925 169.906311,298.837036 
	C169.038864,297.714783 168.029205,296.631287 166.787003,296.157349 
	C162.894348,294.672241 158.914017,293.416840 154.967667,292.072418 
	C154.967667,292.072418 154.924683,291.671234 154.937439,291.469849 
	C172.871140,294.894043 190.876038,297.906342 209.234589,297.782654 
	C215.844833,297.738098 222.451904,297.220947 229.526215,296.960266 
	C227.912476,297.691925 225.832962,298.382812 223.027405,299.115540 
	C221.656128,299.368256 221.010864,299.579071 220.365601,299.789917 
z"/>
<path fill="#E3463C" opacity="1.000000" stroke="none" 
	d="
M170.827026,299.138184 
	C171.132980,298.434326 171.818787,297.283752 172.451569,297.312195 
	C176.037872,297.473511 179.611496,297.917084 183.826691,298.482849 
	C184.749054,298.826355 185.047089,298.881012 185.358078,298.865143 
	C187.275223,299.349884 189.192368,299.834625 191.401154,301.148132 
	C191.154114,302.381958 190.615463,302.787018 190.076797,303.192047 
	C189.518951,303.011688 188.961121,302.831329 187.736542,302.335510 
	C185.818878,301.979523 184.567947,301.938904 183.317032,301.898315 
	C182.748138,301.848724 182.179245,301.799103 180.981689,301.451965 
	C179.645004,301.076294 178.936966,300.998169 178.228928,300.920044 
	C177.706360,300.893066 177.183792,300.866058 176.057449,300.558380 
	C174.728546,300.154999 174.003403,300.032349 173.278275,299.909668 
	C172.579651,299.685089 171.881027,299.460510 170.827026,299.138184 
z"/>
<path fill="#EA463C" opacity="1.000000" stroke="none" 
	d="
M87.854034,62.122002 
	C91.738823,61.899593 92.436836,63.521988 90.766861,66.536354 
	C88.662186,70.335365 87.163208,74.783569 81.331894,74.996002 
	C81.706757,73.954880 82.464615,72.930603 83.385605,71.411026 
	C83.689690,70.586258 83.830643,70.256790 83.971596,69.927338 
	C84.942627,69.154770 85.913658,68.382202 86.957291,67.241142 
	C87.029884,66.872650 87.284401,67.019508 87.311874,66.881882 
	C87.346985,66.454956 87.237953,66.209656 86.927643,65.842407 
	C86.843048,65.676445 86.894249,65.307419 86.902863,64.877678 
	C86.900330,64.161598 86.889175,63.875263 86.878021,63.588928 
	C87.121773,63.134892 87.365524,62.680855 87.854034,62.122002 
z"/>
<path fill="#E3463C" opacity="1.000000" stroke="none" 
	d="
M154.576477,292.130554 
	C158.914017,293.416840 162.894348,294.672241 166.787003,296.157349 
	C168.029205,296.631287 169.038864,297.714783 169.703003,298.799042 
	C168.035049,298.943268 166.819016,298.807800 165.099350,298.373199 
	C164.438126,297.995453 164.271423,297.961304 164.095612,297.971680 
	C163.229141,297.825714 162.362686,297.679718 161.021393,297.267120 
	C160.546555,297.000519 160.138016,296.959717 160.138016,296.959717 
	C157.550232,296.170959 154.962448,295.382202 151.974091,294.286987 
	C151.573486,293.980530 151.210678,293.929108 151.210678,293.929108 
	C151.210678,293.929108 151.108597,293.989685 151.082748,293.677551 
	C151.048294,293.017731 151.039673,292.670105 151.031067,292.322449 
	C152.082474,292.277863 153.133865,292.233276 154.576477,292.130554 
z"/>
<path fill="#100707" opacity="1.000000" stroke="none" 
	d="
M63.822083,162.005127 
	C61.766769,165.350723 63.741932,168.759933 63.850353,172.138367 
	C63.913185,174.096130 63.861774,176.057556 63.064777,178.030609 
	C62.458008,172.452332 58.808189,167.162216 61.902161,161.146500 
	C61.975899,160.944382 61.923103,160.980072 61.945778,161.276108 
	C62.360512,161.723846 62.752567,161.875565 63.144623,162.027283 
	C63.144623,162.027283 63.596058,161.991867 63.822083,162.005127 
z"/>
<path fill="#FD4A3F" opacity="1.000000" stroke="none" 
	d="
M92.503304,57.440762 
	C93.264427,55.926830 94.190216,54.602524 95.469772,53.069305 
	C95.823524,52.860390 95.922783,52.652176 95.922783,52.652176 
	C96.964104,51.996429 98.005417,51.340683 99.450912,50.784046 
	C98.908257,53.250034 97.961418,55.616909 97.014580,57.983784 
	C97.014580,57.983784 96.999939,57.998970 96.594238,58.002266 
	C95.126999,58.004971 94.065453,58.004379 93.003906,58.003792 
	C92.891930,57.879322 92.779945,57.754856 92.503304,57.440762 
z"/>
<path fill="#EA463C" opacity="1.000000" stroke="none" 
	d="
M97.348846,57.922268 
	C97.961418,55.616909 98.908257,53.250034 99.761108,50.575642 
	C99.958717,49.888199 100.250313,49.508266 100.793259,49.157883 
	C103.206833,50.162426 104.329170,51.381073 102.128891,53.479137 
	C100.623276,54.914825 99.163429,56.398518 97.348846,57.922268 
z"/>
<path fill="#010000" opacity="1.000000" stroke="none" 
	d="
M190.440643,303.370728 
	C190.615463,302.787018 191.154114,302.381958 191.723801,301.448425 
	C191.754822,300.919891 191.504044,300.916321 191.462921,300.916077 
	C192.925720,305.336334 196.621521,301.983643 199.671555,303.204498 
	C200.277832,303.337860 200.518509,303.682739 200.518509,303.682739 
	C197.280502,303.638306 194.042496,303.593872 190.440643,303.370728 
z"/>
<path fill="#010000" opacity="1.000000" stroke="none" 
	d="
M203.218140,9.956936 
	C200.603821,9.525249 198.268784,9.077315 195.506317,8.641525 
	C197.819168,8.483083 200.559189,8.303497 203.302155,8.217125 
	C203.349106,8.215647 203.431549,9.341098 203.218140,9.956936 
z"/>
<path fill="#010000" opacity="1.000000" stroke="none" 
	d="
M134.541260,24.202335 
	C133.678909,24.856232 132.888123,25.253647 132.097351,25.651060 
	C131.954102,25.082659 131.810852,24.514256 131.667603,23.945854 
	C132.649353,23.945854 133.631088,23.945854 134.541260,24.202335 
z"/>
<path fill="#010000" opacity="1.000000" stroke="none" 
	d="
M213.306580,13.899082 
	C212.451324,13.863819 211.849487,13.723668 211.112976,13.300790 
	C211.809418,12.536261 212.640518,12.054458 213.471619,11.572657 
	C213.501068,12.313169 213.530518,13.053681 213.306580,13.899082 
z"/>
<path fill="#010000" opacity="1.000000" stroke="none" 
	d="
M125.164810,29.678982 
	C124.356407,30.027304 123.649185,30.127851 122.941956,30.228401 
	C122.993912,29.789019 123.045868,29.349638 123.097824,28.910255 
	C123.820549,29.083908 124.543266,29.257559 125.164810,29.678982 
z"/>
<path fill="#D03F36" opacity="1.000000" stroke="none" 
	d="
M200.910339,303.629822 
	C200.518509,303.682739 200.277832,303.337860 200.142685,303.177185 
	C202.712479,302.993042 205.417419,302.969635 208.408493,303.183411 
	C208.602127,303.563538 208.509628,303.706451 208.417130,303.849335 
	C206.045486,303.758514 203.673828,303.667694 200.910339,303.629822 
z"/>
<path fill="#010000" opacity="1.000000" stroke="none" 
	d="
M208.894287,303.877869 
	C208.509628,303.706451 208.602127,303.563538 208.858795,303.225403 
	C211.705658,303.039429 214.388351,303.048676 217.515198,303.087463 
	C215.096725,303.380096 212.234085,303.643250 208.894287,303.877869 
z"/>
<path fill="#010000" opacity="1.000000" stroke="none" 
	d="
M116.102440,35.339378 
	C116.509377,34.496037 116.903107,33.900845 117.296829,33.305653 
	C117.627907,33.518776 117.958977,33.731899 118.290054,33.945023 
	C117.684502,34.768047 117.078949,35.591068 116.473396,36.414093 
	C116.369995,36.299110 116.233521,36.199223 116.172226,36.065010 
	C116.107307,35.922859 116.113876,35.748066 116.102440,35.339378 
z"/>
<path fill="#010000" opacity="1.000000" stroke="none" 
	d="
M221.973297,15.521126 
	C221.187775,15.623740 220.374863,15.439876 219.292664,15.088692 
	C219.997559,15.025797 220.971725,15.130221 221.973297,15.521126 
z"/>
<path fill="#D03F36" opacity="1.000000" stroke="none" 
	d="
M222.389420,301.889465 
	C223.775742,301.313904 225.546173,300.779846 227.593292,300.377014 
	C226.171143,300.982483 224.472351,301.456757 222.389420,301.889465 
z"/>
<path fill="#010000" opacity="1.000000" stroke="none" 
	d="
M253.934021,17.364540 
	C253.261627,17.323971 252.736374,17.118982 252.211121,16.913994 
	C252.394989,16.691977 252.699280,16.255699 252.744186,16.280947 
	C253.213715,16.544830 253.641663,16.882725 253.934021,17.364540 
z"/>
<path fill="#010000" opacity="1.000000" stroke="none" 
	d="
M216.001083,8.650224 
	C216.471054,8.661263 216.806305,8.816530 217.141541,8.971796 
	C216.969971,9.168236 216.798416,9.364676 216.626846,9.561118 
	C216.373352,9.305563 216.119843,9.050008 216.001083,8.650224 
z"/>
<path fill="#D03F36" opacity="1.000000" stroke="none" 
	d="
M150.753098,292.234406 
	C151.039673,292.670105 151.048294,293.017731 151.052826,293.626282 
	C150.103638,293.509674 149.158493,293.132233 148.213348,292.754761 
	C148.254532,292.551971 148.295700,292.349152 148.336884,292.146362 
	C149.049637,292.146362 149.762375,292.146362 150.753098,292.234406 
z"/>
<path fill="#010000" opacity="1.000000" stroke="none" 
	d="
M68.915924,113.849472 
	C68.760857,112.609749 68.628349,110.887505 68.702553,108.831955 
	C68.919014,110.121422 68.928749,111.744186 68.915924,113.849472 
z"/>
<path fill="#D03F36" opacity="1.000000" stroke="none" 
	d="
M183.605469,302.026672 
	C184.567947,301.938904 185.818878,301.979523 187.362076,302.104736 
	C186.400879,302.177917 185.147400,302.166473 183.605469,302.026672 
z"/>
<path fill="#010000" opacity="1.000000" stroke="none" 
	d="
M243.371979,299.001953 
	C244.398972,298.767059 245.788116,298.532837 247.545212,298.321960 
	C246.520142,298.564423 245.127136,298.783569 243.371979,299.001953 
z"/>
<path fill="#010000" opacity="1.000000" stroke="none" 
	d="
M261.144257,19.798685 
	C260.950378,20.158743 260.649567,20.383482 260.333710,20.584551 
	C260.321350,20.592407 260.164856,20.373791 260.075500,20.260691 
	C260.395233,20.060207 260.714996,19.859726 261.144257,19.798685 
z"/>
<path fill="#010000" opacity="1.000000" stroke="none" 
	d="
M60.987473,153.577225 
	C60.818047,152.400131 60.653286,150.766602 60.696762,148.818604 
	C60.934052,150.043030 60.963097,151.581894 60.987473,153.577225 
z"/>
<path fill="#FF4A3F" opacity="1.000000" stroke="none" 
	d="
M106.143066,44.938049 
	C105.874725,45.162907 105.606384,45.387768 105.165985,45.811516 
	C104.785889,45.279301 104.577843,44.548203 104.369797,43.817108 
	C105.185402,43.668541 106.001007,43.519978 106.726364,43.768787 
	C106.316635,44.324390 106.152290,44.581688 106.143066,44.938049 
z"/>
<path fill="#010000" opacity="1.000000" stroke="none" 
	d="
M150.784637,20.780792 
	C150.484726,21.220259 150.004730,21.527605 149.219696,21.898792 
	C149.477982,21.524645 150.041275,21.086657 150.784637,20.780792 
z"/>
<path fill="#010000" opacity="1.000000" stroke="none" 
	d="
M57.073593,167.914917 
	C57.324825,169.057663 57.564838,170.611938 57.781517,172.557220 
	C57.526249,171.407623 57.294312,169.867050 57.073593,167.914917 
z"/>
<path fill="#010000" opacity="1.000000" stroke="none" 
	d="
M212.106049,7.639339 
	C211.966492,7.936600 211.775803,8.087044 211.585114,8.237484 
	C211.497818,7.963077 211.410538,7.688674 211.323242,7.414271 
	C211.567123,7.440355 211.811020,7.466439 212.106049,7.639339 
z"/>
<path fill="#010000" opacity="1.000000" stroke="none" 
	d="
M273.383057,25.042637 
	C273.766449,24.998413 274.031555,25.057724 274.296661,25.117037 
	C274.101593,25.317123 273.906494,25.517204 273.711395,25.717279 
	C273.562531,25.526905 273.413635,25.336536 273.383057,25.042637 
z"/>
<path fill="#010000" opacity="1.000000" stroke="none" 
	d="
M86.894249,65.307419 
	C86.894249,65.307419 86.843048,65.676445 86.903152,66.120041 
	C87.070297,66.715591 87.177345,66.867546 87.284401,67.019508 
	C87.284401,67.019508 87.029884,66.872650 86.888031,66.910858 
	C86.386772,66.430290 86.027374,65.911522 86.036591,65.268539 
	C86.568230,65.198692 86.731239,65.253059 86.894249,65.307419 
z"/>
<path fill="#010000" opacity="1.000000" stroke="none" 
	d="
M140.839523,20.908974 
	C140.912735,21.092258 140.876740,21.262430 140.840759,21.432604 
	C140.803925,21.253691 140.767120,21.074778 140.839523,20.908974 
z"/>
<path fill="#010000" opacity="1.000000" stroke="none" 
	d="
M218.055481,15.096630 
	C217.470490,15.245586 216.451233,15.372489 215.227356,15.247908 
	C215.888901,15.022476 216.755066,15.048527 218.055481,15.096630 
z"/>
<path fill="#010000" opacity="1.000000" stroke="none" 
	d="
M245.002869,15.385101 
	C244.821274,15.290813 244.725708,15.124878 244.630157,14.958944 
	C244.783066,15.077115 244.935974,15.195284 245.002869,15.385101 
z"/>
<path fill="#010000" opacity="1.000000" stroke="none" 
	d="
M66.516609,146.388702 
	C66.576225,146.993240 66.497719,147.911148 66.253990,149.146088 
	C66.185349,148.542770 66.281914,147.622421 66.516609,146.388702 
z"/>
<path fill="#D03F36" opacity="1.000000" stroke="none" 
	d="
M173.503906,300.080505 
	C174.003403,300.032349 174.728546,300.154999 175.684555,300.432434 
	C175.186813,300.475250 174.458176,300.363281 173.503906,300.080505 
z"/>
<path fill="#010000" opacity="1.000000" stroke="none" 
	d="
M144.436096,19.238808 
	C144.549576,19.396254 144.561890,19.597008 144.574203,19.797760 
	C144.494446,19.625879 144.414673,19.453999 144.436096,19.238808 
z"/>
<path fill="#010000" opacity="1.000000" stroke="none" 
	d="
M106.486145,44.927193 
	C106.152290,44.581688 106.316635,44.324390 106.862785,44.088627 
	C107.575821,44.023342 108.062180,44.035595 108.913177,44.075737 
	C108.461609,44.374527 107.645409,44.645432 106.486145,44.927193 
z"/>
<path fill="#010000" opacity="1.000000" stroke="none" 
	d="
M138.389389,21.744888 
	C138.406082,21.526937 138.511444,21.375196 138.616806,21.223455 
	C138.570557,21.419334 138.524307,21.615215 138.389389,21.744888 
z"/>
<path fill="#010000" opacity="1.000000" stroke="none" 
	d="
M112.962631,38.342319 
	C113.054497,38.164288 113.217194,38.069695 113.379883,37.975098 
	C113.264404,38.125317 113.148926,38.275539 112.962631,38.342319 
z"/>
<path fill="#010000" opacity="1.000000" stroke="none" 
	d="
M344.502411,218.001709 
	C345.002228,217.809280 345.822235,217.617126 346.693451,217.713837 
	C346.103973,218.002457 345.463287,218.002228 344.502411,218.001709 
z"/>
<path fill="#D03F36" opacity="1.000000" stroke="none" 
	d="
M178.468552,301.045715 
	C178.936966,300.998169 179.645004,301.076294 180.588699,301.280029 
	C180.118958,301.327545 179.413574,301.249481 178.468552,301.045715 
z"/>
<path fill="#010000" opacity="1.000000" stroke="none" 
	d="
M136.435913,22.238235 
	C136.549667,22.395988 136.562027,22.597170 136.574371,22.798353 
	C136.494415,22.626123 136.414459,22.453892 136.435913,22.238235 
z"/>
<path fill="#010000" opacity="1.000000" stroke="none" 
	d="
M83.819199,69.811600 
	C83.830643,70.256790 83.689690,70.586258 83.334221,71.080597 
	C83.302071,70.728935 83.484444,70.212410 83.819199,69.811600 
z"/>
<path fill="#010000" opacity="1.000000" stroke="none" 
	d="
M334.953125,87.820656 
	C334.767303,87.346313 334.584045,86.567047 334.433563,85.483734 
	C334.629456,85.958374 334.792542,86.737053 334.953125,87.820656 
z"/>
<path fill="#D03F36" opacity="1.000000" stroke="none" 
	d="
M160.206207,297.067871 
	C160.138016,296.959717 160.546555,297.000519 160.635529,297.052429 
	C160.724503,297.104309 160.517349,297.252228 160.517349,297.252228 
	C160.517349,297.252228 160.274414,297.175995 160.206207,297.067871 
z"/>
<path fill="#D03F36" opacity="1.000000" stroke="none" 
	d="
M151.261017,294.033478 
	C151.210678,293.929108 151.573486,293.980530 151.648682,294.033630 
	C151.723877,294.086700 151.311340,294.137848 151.261017,294.033478 
z"/>
<path fill="#D03F36" opacity="1.000000" stroke="none" 
	d="
M164.178589,298.095093 
	C164.271423,297.961304 164.438126,297.995453 164.701050,298.146027 
	C164.806412,298.217987 164.534119,298.334137 164.534119,298.334137 
	C164.534119,298.334137 164.261551,298.218475 164.178589,298.095093 
z"/>
<path fill="#EA463C" opacity="1.000000" stroke="none" 
	d="
M88.922531,60.213249 
	C89.039124,60.141979 88.960556,60.592407 88.896034,60.687027 
	C88.676613,60.623516 88.668091,60.457809 88.922531,60.213249 
z"/>
<path fill="#EA463C" opacity="1.000000" stroke="none" 
	d="
M95.832504,52.621918 
	C95.922783,52.652176 95.823524,52.860390 95.767776,52.880573 
	C95.712036,52.900757 95.742218,52.591660 95.832504,52.621918 
z"/>
<path fill="#EC453B" opacity="1.000000" stroke="none" 
	d="
M301.243774,268.756836 
	C301.173401,268.598724 301.331177,268.396332 301.672424,268.098358 
	C301.814728,268.278656 301.686707,268.515259 301.243774,268.756836 
z"/>
<path fill="#FD4A3F" opacity="1.000000" stroke="none" 
	d="
M86.902863,64.877678 
	C86.731239,65.253059 86.568230,65.198692 86.155716,65.079063 
	C86.062843,64.649879 86.219475,64.285957 86.627060,63.755486 
	C86.889175,63.875263 86.900330,64.161598 86.902863,64.877678 
z"/>
<path fill="#D03F36" opacity="1.000000" stroke="none" 
	d="
M230.284698,300.444336 
	C230.233643,300.244995 230.420746,300.170410 230.744827,300.255096 
	C230.838516,300.304169 230.479599,300.458893 230.284698,300.444336 
z"/>
<path fill="#D03F36" opacity="1.000000" stroke="none" 
	d="
M233.321320,300.228638 
	C233.207397,300.169800 233.565216,299.966736 233.668884,299.957031 
	C233.748734,300.148743 233.636307,300.262115 233.321320,300.228638 
z"/>
<path fill="#FD4A3F" opacity="1.000000" stroke="none" 
	d="
M63.015751,161.737473 
	C62.752567,161.875565 62.360512,161.723846 61.958885,161.244568 
	C62.261837,161.093887 62.574356,161.270782 63.015751,161.737473 
z"/>
<path fill="#FFFFFE" opacity="1.000000" stroke="none" 
	d="
M122.437492,239.095947 
	C121.959267,214.671600 121.929993,190.299149 121.823715,165.463562 
	C121.797386,159.641190 121.848061,154.281921 121.820755,148.460541 
	C121.792908,142.973663 121.843033,137.948883 121.816162,132.462830 
	C121.790009,126.310059 121.840836,120.618591 121.814995,114.464844 
	C121.738319,101.221069 121.738319,88.439560 121.738319,75.071373 
	C132.950211,75.071373 143.551758,75.071373 154.153305,75.071373 
	C166.832932,75.071373 166.812912,75.079460 171.554413,86.814346 
	C176.334305,98.644241 181.159500,110.455833 186.101517,122.991745 
	C191.627853,136.383392 197.017517,149.058746 202.806824,162.673965 
	C208.374954,148.828598 213.569321,135.912659 218.763702,122.996704 
	C224.783722,108.464706 230.919846,93.978912 236.735092,79.365425 
	C238.047134,76.068253 239.648514,74.919304 243.210999,74.981194 
	C256.308319,75.208694 269.411987,75.071457 283.346069,75.071457 
	C283.346069,86.977005 283.346069,98.528061 283.433929,110.540375 
	C283.463684,115.695679 283.405579,120.389732 283.434967,125.542679 
	C283.464233,129.699234 283.405975,133.396896 283.435303,137.548126 
	C283.462616,144.360413 283.402374,150.719131 283.431519,157.538513 
	C283.440643,181.244614 283.361053,204.490021 283.279327,227.735428 
	C283.267090,231.222855 283.244873,234.710251 283.129700,238.666412 
	C280.646942,239.159317 278.261749,239.183487 275.029053,239.209290 
	C272.788635,239.270782 271.395721,239.330658 269.580170,239.300385 
	C267.435425,239.270081 265.713348,239.329910 263.541077,239.299774 
	C259.724792,239.268402 256.358734,239.327026 252.533112,239.295471 
	C247.351410,239.205292 242.629257,239.205292 237.418839,239.205292 
	C237.418839,225.848083 237.418839,213.305908 237.392883,200.440552 
	C236.962189,200.397461 236.557465,200.677551 235.977936,201.279236 
	C231.166809,212.794769 226.375427,223.928497 221.991776,235.220520 
	C220.730377,238.469818 219.059052,239.323059 215.779709,239.238815 
	C206.962891,239.012344 198.128235,238.941391 189.317810,239.269470 
	C185.768951,239.401596 184.373032,237.966431 183.202942,234.999863 
	C179.121994,224.653229 174.843369,214.384445 170.617584,204.095230 
	C170.015930,202.630280 169.291138,201.215912 168.623337,199.778122 
	C168.228271,199.904663 167.833191,200.031219 167.438126,200.157761 
	C167.438126,213.055069 167.438126,225.952362 167.438126,239.386185 
	C161.955353,239.386185 156.981247,239.386185 151.556335,239.294754 
	C147.740051,239.265533 144.374542,239.327728 140.598099,239.298203 
	C138.790619,239.267136 137.394089,239.327805 135.587570,239.297485 
	C133.784607,239.267288 132.391617,239.328094 130.998627,239.388885 
	C128.294571,239.308517 125.590508,239.228165 122.437492,239.095947 
M237.323303,198.563141 
	C237.323303,198.563141 237.535889,198.709091 237.535889,198.709091 
	C237.535889,198.709091 237.523941,198.434616 237.323303,198.563141 
z"/>
<path fill="#F64A40" opacity="1.000000" stroke="none" 
	d="
M218.364349,123.010056 
	C213.569321,135.912659 208.374954,148.828598 202.806824,162.673965 
	C197.017517,149.058746 191.627853,136.383392 186.199829,123.353638 
	C190.385956,123.649872 194.621155,124.890144 198.832413,124.813545 
	C205.218674,124.697388 211.588303,123.666000 218.364349,123.010056 
z"/>
<path fill="#EA463C" opacity="1.000000" stroke="none" 
	d="
M93.035156,58.315529 
	C94.065453,58.004379 95.126999,58.004971 96.586357,58.009281 
	C95.977997,60.129513 94.954933,62.138325 93.035156,58.315529 
z"/>
<path fill="#D53E35" opacity="1.000000" stroke="none" 
	d="
M270.002838,239.390533 
	C271.395721,239.330658 272.788635,239.270782 274.591858,239.300507 
	C273.377808,249.321777 273.212402,259.564850 266.647980,268.200867 
	C261.347809,275.173615 255.215561,281.240417 246.574081,282.646149 
	C236.534958,284.279236 226.240631,284.684814 216.041229,284.911835 
	C200.410736,285.259735 184.758636,285.305908 169.131058,284.895538 
	C157.687469,284.595062 147.276764,280.279175 140.403046,271.099457 
	C133.775223,262.248108 130.029556,251.789368 130.999756,239.824707 
	C132.391617,239.328094 133.784607,239.267288 135.588837,239.730927 
	C134.667145,263.842896 152.143051,280.613708 175.812164,280.056641 
	C188.960892,279.747192 202.172134,279.320557 215.263000,280.247986 
	C224.886734,280.929810 234.168243,280.304474 243.377579,278.031281 
	C247.013580,277.133759 250.792267,275.678528 253.778625,273.486328 
	C265.199097,265.103088 270.364258,253.502563 270.002838,239.390533 
z"/>
<path fill="#D03F36" opacity="1.000000" stroke="none" 
	d="
M220.709900,299.807465 
	C221.010864,299.579071 221.656128,299.368256 222.645309,299.185608 
	C222.344223,299.417542 221.699203,299.621277 220.709900,299.807465 
z"/>
<path fill="#D03F36" opacity="1.000000" stroke="none" 
	d="
M185.177826,298.710724 
	C185.047089,298.881012 184.749054,298.826355 184.268829,298.583374 
	C184.393845,298.371582 184.701782,298.401825 185.177826,298.710724 
z"/>
<path fill="#FD4A3F" opacity="1.000000" stroke="none" 
	d="
M87.311874,66.881882 
	C87.177345,66.867546 87.070297,66.715591 86.987747,66.286011 
	C87.237953,66.209656 87.346985,66.454956 87.311874,66.881882 
z"/>
<path fill="#C63B33" opacity="1.000000" stroke="none" 
	d="
M152.007126,239.386185 
	C156.981247,239.386185 161.955353,239.386185 167.438126,239.386185 
	C167.438126,225.952362 167.438126,213.055069 167.438126,200.157761 
	C167.833191,200.031219 168.228271,199.904663 168.623337,199.778122 
	C169.291138,201.215912 170.015930,202.630280 170.617584,204.095230 
	C174.843369,214.384445 179.121994,224.653229 183.202942,234.999863 
	C184.373032,237.966431 185.768951,239.401596 189.317810,239.269470 
	C198.128235,238.941391 206.962891,239.012344 215.779709,239.238815 
	C219.059052,239.323059 220.730377,238.469818 221.991776,235.220520 
	C226.375427,223.928497 231.166809,212.794769 236.296600,201.245407 
	C236.999649,200.847885 237.209244,200.805801 237.418839,200.763718 
	C237.418839,213.305908 237.418839,225.848083 237.418839,239.205292 
	C242.629257,239.205292 247.351410,239.205292 252.533066,239.693665 
	C253.260681,253.091141 242.000153,262.877411 229.258896,263.863525 
	C221.858612,264.436340 214.378815,263.888306 206.947281,264.171906 
	C194.587112,264.643646 182.362091,266.162109 170.040009,262.279572 
	C158.296738,258.579407 152.074905,251.719894 152.007126,239.386185 
z"/>
<path fill="#CD3C33" opacity="1.000000" stroke="none" 
	d="
M151.556335,239.294754 
	C152.074905,251.719894 158.296738,258.579407 170.040009,262.279572 
	C182.362091,266.162109 194.587112,264.643646 206.947281,264.171906 
	C214.378815,263.888306 221.858612,264.436340 229.258896,263.863525 
	C242.000153,262.877411 253.260681,253.091141 252.992615,239.783844 
	C256.358734,239.327026 259.724792,239.268402 263.541870,239.714828 
	C263.622772,251.535477 259.082123,261.066528 249.853317,267.370544 
	C238.981827,274.796661 226.419449,275.814941 213.541153,274.269470 
	C209.942291,273.837555 206.245621,274.294373 202.600510,274.160675 
	C191.093277,273.738739 179.396011,274.380157 168.128967,272.487122 
	C150.959503,269.602417 141.375824,256.881287 141.009033,239.389938 
	C144.374542,239.327728 147.740051,239.265533 151.556335,239.294754 
z"/>
<path fill="#D23D34" opacity="1.000000" stroke="none" 
	d="
M140.598099,239.298203 
	C141.375824,256.881287 150.959503,269.602417 168.128967,272.487122 
	C179.396011,274.380157 191.093277,273.738739 202.600510,274.160675 
	C206.245621,274.294373 209.942291,273.837555 213.541153,274.269470 
	C226.419449,275.814941 238.981827,274.796661 249.853317,267.370544 
	C259.082123,261.066528 263.622772,251.535477 263.992065,239.804810 
	C265.713348,239.329910 267.435425,239.270081 269.580170,239.300385 
	C270.364258,253.502563 265.199097,265.103088 253.778625,273.486328 
	C250.792267,275.678528 247.013580,277.133759 243.377579,278.031281 
	C234.168243,280.304474 224.886734,280.929810 215.263000,280.247986 
	C202.172134,279.320557 188.960892,279.747192 175.812164,280.056641 
	C152.143051,280.613708 134.667145,263.842896 135.998810,239.821930 
	C137.394089,239.327805 138.790619,239.267136 140.598099,239.298203 
z"/>
<path fill="#E3463C" opacity="1.000000" stroke="none" 
	d="
M237.392883,200.440552 
	C237.209244,200.805801 236.999649,200.847885 236.471405,200.923798 
	C236.557465,200.677551 236.962189,200.397461 237.392883,200.440552 
z"/>
<path fill="#E3463C" opacity="1.000000" stroke="none" 
	d="
M237.423615,198.498871 
	C237.523941,198.434616 237.535889,198.709091 237.535889,198.709091 
	C237.535889,198.709091 237.323303,198.563141 237.423615,198.498871 
z"/>
</svg>